<svg width="1304" height="281.506" xmlns="http://www.w3.org/2000/svg">

 <g>
  <title>background</title>
  <rect fill="none" id="canvas_background" height="402" width="582" y="-1" x="-1"/>
 </g>
 <g>
  <title>Layer 1</title>
  <path id="svg_1" d="m177.527,136.106c-21.667,50.511 -50.406,96.799 -80.749,142.565c-0.742,-0.604 -1.342,-0.898 -1.663,-1.38c-28.333,-42.563 -55.546,-85.807 -75.988,-132.836c-5.398,-12.417 -10.392,-25.521 -12.42,-38.792c-5.015,-32.805 7.045,-60.147 32.326,-80.917c47.948,-39.392 119.847,-19.995 142.296,37.824c0.59,1.519 1.197,3.031 2.029,5.135c15.656,-15.598 34.04,-22.341 55.55,-18.348c15.181,2.818 27.416,10.786 36.46,23.427c17.464,24.41 12.521,58.86 -10.896,77.606c-24.957,19.978 -64.742,17.807 -86.945,-14.284zm-81.884,111.439c2.118,-3.16 3.186,-4.611 4.108,-6.15c10.857,-18.117 22.028,-36.058 32.451,-54.422c13.057,-23.008 25.182,-46.514 33.596,-71.723c5.266,-15.773 4.943,-31.404 -1.454,-46.802c-9.984,-24.032 -27.828,-39.636 -53.055,-44.802c-28.137,-5.763 -52.621,2.877 -71.121,25.091c-15.645,18.788 -21.848,40.76 -13.587,64.373c6.507,18.601 14.448,36.886 23.625,54.327c14.072,26.747 29.752,52.647 45.437,80.108zm168.694,-141.889c-0.003,-20.143 -16.786,-37.134 -36.646,-37.102c-20.145,0.033 -37.185,17.202 -37.095,37.375c0.09,20.063 16.913,36.937 36.875,36.985c20.345,0.05 36.87,-16.65 36.866,-37.258z" fill="#FF6709" clip-rule="evenodd" fill-rule="evenodd"/>
  <path id="svg_2" d="m475.621,146.187c-11.063,-19.704 -21.712,-38.672 -33.081,-58.921c0,25.339 0,49.307 0,73.6c-7.252,0 -13.968,0 -20.956,0c0,-36.695 0,-73.28 0,-110.611c7.475,0 15.063,-0.172 22.627,0.178c1.194,0.056 2.535,2.329 3.374,3.82c8.398,14.934 16.703,29.92 25.043,44.887c0.967,1.737 1.985,3.445 3.375,5.85c1.075,-1.725 1.928,-3.017 2.706,-4.354c9.039,-15.528 18.139,-31.023 27.034,-46.634c1.599,-2.806 3.296,-4.042 6.627,-3.878c6.113,0.301 12.251,0.086 18.652,0.086c0,36.998 0,73.584 0,110.578c-6.581,0 -13.3,0 -20.572,0c0,-23.722 0,-47.578 0,-71.435c-0.361,-0.106 -0.723,-0.213 -1.084,-0.319c-11.102,18.803 -22.205,37.608 -33.745,57.153z" fill="#FF6709" clip-rule="evenodd" fill-rule="evenodd"/>
  <path id="svg_3" d="m1295.011,50.209c0,37.231 0,73.817 0,110.694c-6.787,0 -13.386,0 -20.513,0c0,-23.741 0,-47.621 0,-71.5c-0.399,-0.135 -0.799,-0.271 -1.198,-0.406c-11.086,18.769 -22.172,37.538 -33.762,57.162c-11.011,-19.58 -21.729,-38.642 -33.194,-59.031c0,25.479 0,49.384 0,73.678c-7.022,0 -13.741,0 -20.794,0c0,-36.631 0,-73.334 0,-110.583c7.355,0 14.641,-0.2 21.896,0.174c1.396,0.072 3.072,2.17 3.946,3.714c8.515,15.059 16.882,30.201 25.304,45.313c0.946,1.697 1.969,3.352 3.322,5.646c5.895,-10.121 11.481,-19.713 17.067,-29.306c4.354,-7.477 8.558,-15.05 13.183,-22.354c0.991,-1.565 3.468,-2.945 5.341,-3.058c6.287,-0.377 12.61,-0.143 19.402,-0.143z" fill="#7EBA58" clip-rule="evenodd" fill-rule="evenodd"/>
  <path id="svg_4" d="m409.601,106.145c-0.012,31.816 -25.809,57.17 -58.152,57.151c-32.31,-0.018 -58.194,-25.801 -58.139,-57.912c0.056,-31.605 26.228,-57.384 58.371,-57.137c36.871,0.284 59.523,31.13 57.92,57.898zm-21.28,-0.64c-0.015,-20.071 -17.037,-37.16 -36.796,-36.942c-20.052,0.222 -36.902,17.104 -36.947,37.019c-0.046,20.323 16.836,37.344 37.028,37.333c20.321,-0.011 36.73,-16.73 36.715,-37.41z" fill="#FF6709" clip-rule="evenodd" fill-rule="evenodd"/>
  <path id="svg_5" d="m805.919,111.689c7.887,3.439 11.392,9.886 13.911,17.137c3.694,10.63 7.46,21.236 11.289,32.119c-7.56,0 -14.979,0 -22.703,0c-2.739,-8.809 -5.396,-17.708 -8.283,-26.531c-2.418,-7.389 -6.263,-13.938 -14.322,-16.027c-4.72,-1.224 -9.792,-1.086 -15.354,-1.624c0,15.164 0,29.555 0,44.182c-7.189,0 -13.799,0 -20.796,0c0,-36.514 0,-73.077 0,-109.72c0.161,-0.118 0.426,-0.482 0.69,-0.482c15.808,0.001 31.675,-0.81 47.405,0.307c14.597,1.037 24.686,11.377 27.335,25.134c2.591,13.45 -3.976,26.838 -16.651,33.959c-0.701,0.396 -1.374,0.841 -2.521,1.546zm-35.26,-11.234c6.055,0 11.858,0.295 17.619,-0.069c8.629,-0.544 15.143,-6.779 15.857,-14.599c0.801,-8.77 -3.954,-16.622 -12.587,-18.439c-6.688,-1.409 -13.743,-1.071 -20.89,-1.526c0.001,11.995 0.001,23.06 0.001,34.633z" fill="#7EBA58" clip-rule="evenodd" fill-rule="evenodd"/>
  <path id="svg_6" d="m967.613,50.816c16.297,0 32.305,-0.852 48.178,0.25c14.564,1.012 24.691,11.441 27.293,25.176c2.52,13.306 -3.956,26.715 -16.274,33.713c-0.842,0.478 -1.659,1 -2.864,1.728c7.613,3.423 11.215,9.589 13.682,16.742c3.722,10.792 7.597,21.53 11.497,32.548c-7.466,0 -14.74,0 -22.676,0c-2.286,-7.265 -4.646,-14.801 -7.031,-22.328c-0.804,-2.536 -1.504,-5.122 -2.542,-7.562c-4.822,-11.332 -13.145,-15.313 -28.308,-13.433c0,14.207 0,28.476 0,43.142c-7.121,0 -13.853,0 -20.954,0c-0.001,-36.408 -0.001,-72.975 -0.001,-109.976zm21.056,15.491c0,11.608 0,22.676 0,34.209c5.78,0 11.256,0.199 16.713,-0.043c9.828,-0.437 16.63,-7.19 16.757,-16.311c0.133,-9.514 -6.871,-17.214 -16.589,-17.796c-5.465,-0.328 -10.965,-0.059 -16.881,-0.059z" fill="#7EBA58" clip-rule="evenodd" fill-rule="evenodd"/>
  <path id="svg_7" d="m738.345,161.182c-7.49,0 -14.426,0.139 -21.346,-0.134c-1.171,-0.047 -2.7,-1.648 -3.329,-2.901c-2.606,-5.198 -4.735,-10.643 -7.482,-15.759c-0.791,-1.473 -3.054,-3.029 -4.663,-3.053c-15.651,-0.227 -31.308,-0.213 -46.959,-0.012c-1.488,0.019 -3.587,1.438 -4.316,2.791c-2.755,5.113 -5.166,10.423 -7.492,15.752c-1.059,2.425 -2.353,3.524 -5.196,3.408c-6.31,-0.257 -12.637,-0.08 -19.79,-0.08c2.746,-6.027 5.204,-11.574 7.785,-17.062c14.149,-30.083 28.365,-60.136 42.435,-90.257c1.203,-2.575 2.548,-3.388 5.428,-3.821c9.558,-1.437 14.415,2.066 18.471,11.229c14.259,32.215 29.697,63.907 44.683,95.801c0.547,1.166 1.023,2.363 1.771,4.098zm-42.093,-40.268c-6.13,-13.343 -11.903,-25.908 -18.13,-39.46c-6.356,13.681 -12.232,26.331 -18.332,39.46c12.444,0 24.017,0 36.462,0z" fill="#7EBA58" clip-rule="evenodd" fill-rule="evenodd"/>
  <path id="svg_8" d="m956.341,161.194c-7.176,0 -13.678,0.214 -20.148,-0.149c-1.635,-0.092 -3.825,-1.673 -4.627,-3.176c-2.735,-5.124 -4.792,-10.608 -7.502,-15.746c-0.719,-1.359 -2.847,-2.78 -4.346,-2.799c-15.818,-0.202 -31.641,-0.19 -47.459,-0.01c-1.365,0.016 -3.304,1.34 -3.965,2.59c-2.792,5.284 -5.013,10.874 -7.872,16.117c-0.801,1.469 -3.026,2.941 -4.672,3.031c-6.412,0.349 -12.854,0.142 -20.101,0.142c4.241,-9.115 8.111,-17.512 12.047,-25.877c12.737,-27.076 25.553,-54.114 38.165,-81.247c1.312,-2.821 2.786,-3.565 5.811,-4.019c9.402,-1.412 14.12,2.051 18.103,11.031c14.348,32.358 29.838,64.209 44.893,96.255c0.484,1.033 0.911,2.095 1.673,3.857zm-60.248,-79.74c-6.357,13.685 -12.233,26.336 -18.228,39.239c12.405,0 24.034,0 36.26,0c-6.034,-13.13 -11.807,-25.694 -18.032,-39.239z" fill="#7EBA58" clip-rule="evenodd" fill-rule="evenodd"/>
  <path id="svg_9" d="m1174.32,161.193c-7.35,0 -13.85,0.183 -20.325,-0.135c-1.52,-0.075 -3.584,-1.508 -4.319,-2.89c-2.649,-4.981 -4.962,-10.156 -7.148,-15.364c-1.098,-2.614 -2.487,-3.72 -5.504,-3.686c-15.319,0.172 -30.643,0.146 -45.963,0.017c-2.702,-0.023 -4.18,0.669 -5.258,3.285c-2.15,5.219 -4.812,10.226 -7.079,15.399c-1.045,2.383 -2.284,3.58 -5.166,3.458c-6.309,-0.27 -12.638,-0.084 -19.535,-0.084c0.541,-1.563 0.842,-2.782 1.364,-3.896c16.248,-34.609 32.551,-69.193 48.716,-103.842c1.18,-2.53 2.649,-2.978 5.217,-3.375c9.489,-1.466 14.431,1.939 18.504,11.153c14.242,32.222 29.69,63.911 44.676,95.804c0.546,1.17 1.037,2.366 1.82,4.156zm-60.257,-79.79c-6.401,13.814 -12.258,26.453 -18.255,39.396c12.542,0 24.08,0 36.32,0c-6.003,-13.09 -11.769,-25.664 -18.065,-39.396z" fill="#7EBA58" clip-rule="evenodd" fill-rule="evenodd"/>
  <path id="svg_10" d="m548.539,69.692c0,-6.699 0,-12.615 0,-18.841c27.386,0 54.579,0 82.095,0c0,6.194 0,12.088 0,18.51c-9.941,0 -19.688,0 -29.95,0c0,30.708 0,60.901 0,91.462c-7.386,0 -14.252,0 -21.711,0c0,-30.314 0,-60.504 0,-91.131c-10.334,0 -20.096,0 -30.434,0z" fill="#7EBA58" clip-rule="evenodd" fill-rule="evenodd"/>
  <path id="svg_11" d="m245.203328,252.659c4.35,-11.082 8.707,-22.181 13.062,-33.28c2.488,-6.342 4.8,-12.764 7.603,-18.964c0.566,-1.253 2.983,-2.311 4.541,-2.304c1.776,0.008 4.643,0.863 5.153,2.117c7.077,17.369 13.831,34.87 20.808,52.709c-2.859,0 -5.26,0 -7.883,0c-1.706,-4.65 -3.24,-9.393 -5.24,-13.93c-0.552,-1.253 -2.449,-2.626 -3.792,-2.694c-5.813,-0.295 -11.661,-0.324 -17.47,0.011c-1.482,0.085 -3.412,1.551 -4.179,2.919c-1.446,2.577 -2.558,5.471 -3.158,8.367c-1.104,5.327 -4.136,6.683 -9.445,5.049zm34.899,-22.319c-3.174,-8.672 -6.097,-16.658 -9.472,-25.876c-3.432,9.268 -6.421,17.341 -9.582,25.876c6.626,0 12.379,0 19.054,0z" fill="#7A7A7A" clip-rule="evenodd" fill-rule="evenodd"/>
  <path id="svg_12" d="m333.598328,213.239c1.916,0 3.544,0 5.482,0c0.212,1.398 0.416,2.736 0.726,4.778c5.164,-6.058 11.392,-7 18.049,-5.63c7.546,1.554 12.295,7.802 13.256,17.901c0.969,10.189 -2.969,22.458 -15.888,23.599c-5.52,0.487 -10.461,-0.902 -15.129,-6.154c0,7.547 0,13.751 0,20.316c-2.448,0 -4.336,0 -6.496,0c0,-18.078 0,-36.157 0,-54.81zm5.985,19.836c0.058,7.527 3.295,13.121 8.621,14.989c4.73,1.66 9.158,0.84 12.369,-2.813c5.271,-5.993 4.984,-13.15 2.715,-20.263c-1.503,-4.713 -5.007,-7.358 -10,-7.745c-8.415,-0.649 -13.783,5.586 -13.705,15.832z" fill="#7A7A7A" clip-rule="evenodd" fill-rule="evenodd"/>
  <path id="svg_13" d="m580.994328,250.291c0,5.035 0,11.259 0,17.802c-2.429,0 -4.317,0 -6.452,0c0,-18.204 0,-36.283 0,-54.772c1.805,-0.08 3.54,-0.157 5.509,-0.244c0.213,1.545 0.388,2.814 0.564,4.088c0.314,0.004 0.772,0.141 0.919,-0.016c5.314,-5.651 11.844,-6.416 18.789,-4.239c7.194,2.255 10.153,8.017 11.397,15.014c2.478,13.943 -3.749,24.941 -15.639,25.741c-4.835,0.324 -9.858,-2.12 -15.087,-3.374zm24.657,-17.498c-0.056,-9.246 -4.305,-15.051 -11.392,-15.561c-8.265,-0.595 -13.553,5.324 -13.707,15.342c-0.145,9.5 4.948,16.141 12.519,16.326c7.571,0.186 12.638,-6.303 12.58,-16.107z" fill="#7A7A7A" clip-rule="evenodd" fill-rule="evenodd"/>
  <path id="svg_14" d="m886.562672,213.238c1.947,0 3.588,0 5.473,0c0.188,1.387 0.359,2.657 0.535,3.928c0.316,0.001 0.775,0.138 0.923,-0.019c5.313,-5.655 11.844,-6.417 18.79,-4.237c7.193,2.258 10.151,8.02 11.395,15.017c2.479,13.942 -3.753,24.941 -15.645,25.738c-4.838,0.323 -9.86,-2.123 -15.089,-3.38c0,5.044 0,11.27 0,17.811c-2.427,0 -4.315,0 -6.382,0c0,-18.356 0,-36.574 0,-54.858zm31.493,20.467c-0.167,-9.756 -4.645,-16.063 -12.06,-16.485c-7.219,-0.411 -11.638,3.649 -13.169,12.101c-1.612,8.898 2.193,16.883 9.004,18.896c5.515,1.629 11.026,-0.416 13.517,-5.548c1.347,-2.773 1.833,-5.963 2.708,-8.964z" fill="#7A7A7A" clip-rule="evenodd" fill-rule="evenodd"/>
  <path id="svg_15" d="m960.544672,231.455c5.754,3.461 7.564,7.201 6.26,12.465c-1.379,5.563 -5.41,9.011 -11.506,9.201c-7.123,0.223 -14.258,0.053 -21.772,0.053c0,-13.264 0,-26.29 0,-39.504c8.082,0 16.422,-0.919 24.459,0.246c8.856,1.283 9.996,10.037 2.559,17.539zm-20.779,3.03c0,4.653 0,8.681 0,13.053c4.709,0 9.013,-0.016 13.316,0.004c4.277,0.02 7.038,-1.812 7.439,-6.278c0.351,-3.889 -2.117,-6.431 -6.925,-6.721c-4.447,-0.27 -8.926,-0.058 -13.83,-0.058zm-0.226,-5.412c5.132,0 9.833,0.507 14.328,-0.237c1.919,-0.318 4.373,-3.061 4.753,-5.05c0.255,-1.335 -2.541,-4.491 -4.261,-4.729c-4.805,-0.662 -9.76,-0.23 -14.82,-0.23c0,3.466 0,6.568 0,10.246z" fill="#7A7A7A" clip-rule="evenodd" fill-rule="evenodd"/>
  <path id="svg_16" d="m681.345672,253.184c0,-13.558 0,-26.471 0,-39.641c8.196,0 16.295,-0.479 24.279,0.272c2.633,0.247 6.034,3.192 7.197,5.76c2.028,4.475 0.046,8.7 -4.318,11.46c6.281,4.447 7.846,8.203 6.025,13.914c-1.729,5.425 -5.911,8.164 -12.77,8.222c-6.624,0.056 -13.25,0.013 -20.413,0.013zm6.296,-5.67c5.157,0 9.794,0.091 14.427,-0.028c3.92,-0.101 6.172,-2.301 6.474,-6.182c0.321,-4.121 -2.171,-6.32 -5.891,-6.589c-4.899,-0.353 -9.843,-0.086 -15.01,-0.086c0,4.355 0,8.262 0,12.885zm0.062,-28.996c0,3.826 0,7.046 0,10.641c4.583,0 8.862,0.058 13.139,-0.018c3.39,-0.061 5.914,-1.558 6.083,-5.188c0.18,-3.844 -2.677,-5.178 -5.857,-5.371c-4.272,-0.259 -8.571,-0.064 -13.365,-0.064z" fill="#7A7A7A" clip-rule="evenodd" fill-rule="evenodd"/>
  <path id="svg_17" d="m1132.456672,231.345c5.57,3.446 7.479,7.05 6.513,11.937c-1.075,5.443 -4.829,9.381 -10.538,9.699c-7.576,0.422 -15.192,0.104 -23.05,0.104c0,-13.41 0,-26.438 0,-39.863c7.662,0 15.099,-0.221 22.512,0.09c3.922,0.164 7.499,1.748 9.008,5.942c1.501,4.177 0.262,7.635 -4.445,12.091zm-20.936,16.074c5.434,0 10.396,0.17 15.338,-0.059c3.513,-0.162 5.316,-2.569 5.621,-5.913c0.315,-3.453 -1.294,-6.155 -4.781,-6.417c-5.341,-0.399 -10.734,-0.104 -16.178,-0.104c0,4.191 0,7.974 0,12.493zm0.097,-18.274c4.652,0 9.085,0.087 13.513,-0.028c3.191,-0.084 5.499,-1.665 5.742,-5.01c0.256,-3.503 -2.109,-5.216 -5.216,-5.398c-4.575,-0.269 -9.177,-0.069 -14.039,-0.069c0,3.596 0,6.809 0,10.505z" fill="#7A7A7A" clip-rule="evenodd" fill-rule="evenodd"/>
  <path id="svg_18" d="m849.628672,234.707c0.822,10.346 5.828,15.408 13.952,14.145c2.9,-0.45 6.341,-2.537 7.946,-4.938c2.078,-3.109 4.007,-4.026 7.56,-2.89c-1.007,5.842 -4.169,10.13 -9.728,12.041c-7.179,2.467 -14.284,1.909 -20.18,-3.331c-9.054,-8.048 -7.775,-27.269 2.067,-34.354c9.892,-7.12 23.529,-2.761 27.112,8.82c0.96,3.103 1.175,6.437 1.878,10.508c-10.547,-0.001 -20.416,-0.001 -30.607,-0.001zm23.317,-5.45c-0.494,-7.695 -4.666,-11.797 -11.291,-12.02c-5.139,-0.172 -12.225,5.122 -11.259,12.02c7.484,0 15.008,0 22.55,0z" fill="#7A7A7A" clip-rule="evenodd" fill-rule="evenodd"/>
  <path id="svg_19" d="m414.159328,234.934c-10.696,0 -20.447,0 -30.17,0c-0.124,7.556 2.661,11.909 8.322,13.599c6.125,1.828 10.176,-0.062 14.354,-5.772c1.125,-1.537 3.802,-1.94 6.51,-3.214c-1.65,9.291 -6.729,13.958 -14.66,14.683c-9.444,0.864 -16.78,-3.206 -19.67,-11.147c-2.364,-6.496 -2.321,-13.057 0.302,-19.505c3.221,-7.921 10.038,-12.109 18.534,-11.474c7.68,0.574 13.182,5.367 15.229,13.589c0.669,2.687 0.766,5.518 1.249,9.241zm-7.254,-5.72c-0.203,-7.399 -4.469,-11.911 -11.083,-11.91c-6.583,0 -11.001,4.471 -11.461,11.91c7.523,0 15.029,0 22.544,0z" fill="#7A7A7A" clip-rule="evenodd" fill-rule="evenodd"/>
  <path id="svg_20" d="m1002.112672,252.908c0,-10.529 0,-20.632 0,-30.734c-0.269,-0.121 -0.536,-0.241 -0.806,-0.362c-0.904,1.422 -1.887,2.802 -2.702,4.273c-3.869,6.983 -8.056,13.823 -11.411,21.048c-2.439,5.254 -5.711,7.345 -11.604,5.573c0,-12.788 0,-25.86 0,-39.278c1.854,0 3.746,0 6.262,0c0,10.225 0,20.434 0,30.642c0.384,0.095 0.768,0.189 1.151,0.284c4.688,-8.504 9.707,-16.848 13.936,-25.573c2.471,-5.097 5.644,-6.866 11.229,-5.216c0,12.959 0,26.016 0,39.344c-1.904,-0.001 -3.65,-0.001 -6.055,-0.001z" fill="#7A7A7A" clip-rule="evenodd" fill-rule="evenodd"/>
  <path id="svg_21" d="m488.149328,252.835c-5.271,0.937 -9.187,1.378 -10.567,-4.577c-5.552,4.367 -11.382,7.138 -18.448,5.365c-5.649,-1.418 -8.535,-4.574 -8.901,-9.923c-0.377,-5.503 2.117,-9.884 7.566,-11.518c4.896,-1.468 10.155,-1.718 15.071,-3.137c1.751,-0.505 4.097,-2.829 4.146,-4.388c0.064,-2.029 -1.699,-4.26 -3.063,-6.12c-0.552,-0.754 -2.1,-0.897 -3.233,-1.087c-6.29,-1.05 -8.964,0.551 -12.585,6.104c-0.915,1.404 -3.631,1.636 -5.52,2.405c-0.456,-0.539 -0.912,-1.079 -1.369,-1.619c1.503,-2.762 2.494,-6.025 4.609,-8.188c5.156,-5.271 18.866,-5.768 24.201,-0.78c1.92,1.796 3.156,5.108 3.341,7.821c0.441,6.463 -0.143,12.99 0.159,19.47c0.086,1.864 1.829,3.63 2.715,5.487c0.635,1.332 1.107,2.742 1.878,4.685zm-11.16,-19.742c-5.078,0.86 -9.84,1.481 -14.51,2.521c-3.552,0.79 -6.069,3.127 -5.79,7.006c0.294,4.076 3.125,5.975 7.028,6.404c9.227,1.017 14.298,-5.021 13.272,-15.931z" fill="#7A7A7A" clip-rule="evenodd" fill-rule="evenodd"/>
  <path id="svg_22" d="m638.997672,226.242c0.056,-7.514 3.298,-11.709 8.737,-12.801c5.033,-1.01 10.533,-0.789 15.647,0.024c4.706,0.748 7.208,4.43 7.146,9.468c-0.077,6.329 -0.146,12.658 -0.108,18.987c0.015,2.523 -0.8,5.421 3.031,6.471c0.749,0.206 0.871,2.701 1.347,4.371c-4.906,1.069 -8.97,1.665 -10.261,-4.661c-5.516,4.735 -11.299,7.15 -18.187,5.576c-5.745,-1.313 -8.661,-4.426 -9.128,-9.728c-0.5,-5.671 2.091,-10.166 7.786,-11.848c4.904,-1.448 10.079,-1.975 15.127,-2.938c4.225,-0.807 4.787,-3.833 3.81,-7.19c-0.404,-1.39 -1.851,-2.813 -3.193,-3.533c-5.821,-3.133 -12.121,-0.803 -15.593,4.873c-0.894,1.461 -3.633,1.792 -6.161,2.929zm25.048,6.83c-4.944,0.834 -9.706,1.455 -14.379,2.482c-3.748,0.825 -6.408,3.178 -5.97,7.334c0.431,4.09 3.392,5.819 7.266,6.159c9.028,0.793 13.786,-4.892 13.083,-15.975z" fill="#7A7A7A" clip-rule="evenodd" fill-rule="evenodd"/>
  <path id="svg_23" d="m546.890328,212.081c12.01,-0.083 19.435,7.92 19.407,20.917c-0.027,13.127 -7.283,21.182 -19.172,21.282c-12.1,0.104 -19.631,-7.749 -19.816,-20.658c-0.184,-12.915 7.579,-21.458 19.581,-21.541zm13.39,21.17c-0.962,-3.294 -1.41,-6.86 -2.987,-9.826c-4.254,-7.998 -15.972,-8.353 -20.613,-0.597c-3.826,6.396 -3.841,13.366 -0.534,19.997c2.707,5.431 9.194,7.551 14.995,5.502c5.521,-1.95 8.385,-6.96 9.139,-15.076z" fill="#7A7A7A" clip-rule="evenodd" fill-rule="evenodd"/>
  <path id="svg_24" d="m1078.060672,254.28c-12.102,0.106 -19.634,-7.741 -19.823,-20.651c-0.189,-12.915 7.575,-21.462 19.574,-21.548c12.013,-0.086 19.438,7.912 19.414,20.911c-0.023,13.125 -7.279,21.185 -19.165,21.288zm12.55,-21.83c-0.128,-1.014 -0.179,-3.202 -0.706,-5.271c-2.469,-9.679 -13.85,-13.188 -20.707,-6.454c-5.687,5.584 -5.83,19.152 -0.129,24.72c1.259,1.229 2.918,2.241 4.579,2.835c9.199,3.291 16.672,-3.242 16.963,-15.83z" fill="#7A7A7A" clip-rule="evenodd" fill-rule="evenodd"/>
  <path id="svg_25" d="m775.654672,254.279c-12.008,-0.1 -19.47,-8.221 -19.379,-21.095c0.092,-12.977 7.87,-21.177 20.018,-21.103c11.716,0.07 18.961,8.035 18.971,20.856c0.01,13.314 -7.46,21.443 -19.61,21.342zm12.996,-21.778c-0.127,-1.018 -0.151,-3.217 -0.708,-5.272c-1.294,-4.781 -4.107,-8.364 -9.139,-9.563c-4.521,-1.077 -8.611,0.012 -11.868,3.398c-5.297,5.51 -5.449,18.468 -0.201,23.985c1.317,1.386 3.112,2.552 4.91,3.207c9.184,3.348 16.687,-3.179 17.006,-15.755z" fill="#7A7A7A" clip-rule="evenodd" fill-rule="evenodd"/>
  <path id="svg_26" d="m837.246672,225.816c-3.705,0.839 -6.033,0.564 -7.752,-3.336c-2.493,-5.656 -10.174,-6.875 -15.498,-3.127c-7.618,5.361 -8.002,21.516 -0.646,27.154c6.708,5.142 14.059,2.1 18.453,-7.643c1.763,-0.008 3.523,-0.008 5.282,-0.008c-0.026,8.769 -6.975,15.113 -16.448,15.32c-11.204,0.246 -18.665,-7.337 -19.357,-19.673c-0.679,-12.085 6.531,-21.386 17.326,-22.35c10.448,-0.93 17.568,4.206 18.64,13.663z" fill="#7A7A7A" clip-rule="evenodd" fill-rule="evenodd"/>
  <path id="svg_27" d="m1046.638672,238.792c2.056,0 3.682,0 5.285,0c0.512,9.297 -8.542,16.591 -18.613,15.243c-10.514,-1.406 -15.957,-7.439 -17.007,-18.847c-1.438,-15.634 11.015,-26.491 25.488,-22.248c6.272,1.839 9.651,6.052 10.668,12.79c-3.482,0.695 -6.259,1.393 -7.869,-3.114c-1.345,-3.763 -4.879,-5.304 -8.862,-5.295c-4.758,0.012 -8.453,2.156 -10.496,6.396c-3.062,6.354 -2.971,12.93 0.115,19.251c2.008,4.115 5.806,6.028 10.251,5.867c4.446,-0.161 7.933,-2.294 9.676,-6.667c0.43,-1.076 0.869,-2.149 1.364,-3.376z" fill="#7A7A7A" clip-rule="evenodd" fill-rule="evenodd"/>
  <path id="svg_28" d="m504.397328,218.417c-5.29,0 -9.706,0 -14.403,0c0,-1.908 0,-3.31 0,-5.026c11.707,0 23.248,0 35.045,0c0,1.558 0,2.967 0,5.048c-3.322,0 -6.613,0.241 -9.853,-0.062c-3.868,-0.362 -4.786,1.227 -4.704,4.853c0.222,9.777 0.076,19.563 0.076,29.645c-2.155,0 -3.902,0 -6.162,0c0.001,-11.164 0.001,-22.396 0.001,-34.458z" fill="#7A7A7A" clip-rule="evenodd" fill-rule="evenodd"/>
  <path id="svg_29" d="m754.134672,213.449c0,1.613 0,2.911 0,4.988c-2.168,0 -4.252,-0.025 -6.336,0.005c-9.487,0.136 -8.185,-1.285 -8.26,8.118c-0.069,8.632 -0.015,17.266 -0.015,26.374c-2.021,0.101 -3.772,0.187 -6.229,0.31c0,-11.541 0,-22.887 0,-34.714c-5.099,0 -9.527,0 -14.294,0c-0.124,-1.878 -0.218,-3.283 -0.337,-5.081c11.887,0 23.425,0 35.471,0z" fill="#7A7A7A" clip-rule="evenodd" fill-rule="evenodd"/>
  <path id="svg_30" d="m428.105328,252.988c-2.723,0 -4.501,0 -6.532,0c0,-13.248 0,-26.304 0,-39.635c8.957,0 17.71,0 27.075,0c0.066,1.446 0.136,2.957 0.231,5.043c-7.042,0 -13.615,0 -20.775,0c0.001,11.752 0.001,22.973 0.001,34.592z" fill="#7A7A7A" clip-rule="evenodd" fill-rule="evenodd"/>
  <path id="svg_31" d="m306.987328,218.348c0,11.971 0,23.071 0,34.499c-2.315,0 -4.206,0 -6.376,0c0,-13.045 0,-26.104 0,-39.466c9.007,0 17.882,0 27.043,0c0,1.604 0,3.005 0,4.967c-6.743,0 -13.313,0 -20.667,0z" fill="#7A7A7A" clip-rule="evenodd" fill-rule="evenodd"/>
  <path id="svg_32" d="m65.601,161.077c0,-36.9 0,-73.493 0,-110.425c1,-0.139 2.094,-0.435 3.184,-0.419c14.14,0.202 28.321,-0.132 42.408,0.861c12.011,0.846 21.064,7.27 25.29,18.919c4.245,11.704 2.495,22.593 -6.018,32.062c-0.434,0.482 -0.789,1.035 -1.301,1.716c8.886,5.979 14.381,13.817 14.483,24.813c0.155,16.678 -11.178,30.738 -28.529,32.182c-16.323,1.36 -32.847,0.291 -49.517,0.291zm21.133,-17.384c8.317,-0.545 16.228,-0.314 23.814,-1.769c7.825,-1.5 11.359,-7.624 10.789,-15.622c-0.466,-6.551 -5.821,-12.463 -12.998,-13.049c-7.067,-0.577 -14.219,-0.126 -21.606,-0.126c0.001,9.962 0.001,19.712 0.001,30.566zm-0.011,-46.491c4.688,0 8.831,0.006 12.973,-0.005c0.995,-0.002 1.995,-0.009 2.983,-0.104c8.251,-0.79 14.063,-6.026 14.564,-13.094c0.577,-8.157 -3.944,-14.906 -12.088,-16.345c-5.923,-1.046 -12.093,-0.692 -18.433,-0.975c0.001,10.539 0.001,20.242 0.001,30.523z" fill="#FF6709" clip-rule="evenodd" fill-rule="evenodd"/>
 </g>
</svg>